<svg xmlns="http://www.w3.org/2000/svg" width="14" height="14" viewBox="0 0 14 14">
  <metadata><?xpacket begin="﻿" id="W5M0MpCehiHzreSzNTczkc9d"?>
<x:xmpmeta xmlns:x="adobe:ns:meta/" x:xmptk="Adobe XMP Core 5.6-c138 79.159824, 2016/09/14-01:09:01        ">
   <rdf:RDF xmlns:rdf="http://www.w3.org/1999/02/22-rdf-syntax-ns#">
      <rdf:Description rdf:about=""/>
   </rdf:RDF>
</x:xmpmeta>
                                                                                                    
                                                                                                    
                                                                                                    
                                                                                                    
                                                                                                    
                                                                                                    
                                                                                                    
                                                                                                    
                                                                                                    
                                                                                                    
                                                                                                    
                                                                                                    
                                                                                                    
                                                                                                    
                                                                                                    
                                                                                                    
                                                                                                    
                                                                                                    
                                                                                                    
                                                                                                    
                           
<?xpacket end="w"?></metadata>
<defs>
    <style>
      .cls-1 {
        fill: #d6d6d6;
        fill-rule: evenodd;
      }
    </style>
  </defs>
  <path id="setting" class="cls-1" d="M13.91,7.945V5.956l-1.883-.428a5.217,5.217,0,0,0-.473-1.142l1.028-1.633L11.175,1.347,9.542,2.375A5.208,5.208,0,0,0,8.4,1.9L7.971,0.02H5.981L5.552,1.9a5.207,5.207,0,0,0-1.143.472L2.776,1.347,1.369,2.753,2.4,4.386a5.211,5.211,0,0,0-.472,1.142l-1.883.428V7.945L1.925,8.373A5.206,5.206,0,0,0,2.4,9.514L1.369,11.148l1.407,1.406L4.41,11.526A5.215,5.215,0,0,0,5.552,12L5.981,13.88h1.99L8.4,12a5.217,5.217,0,0,0,1.143-.472l1.634,1.027,1.407-1.406L11.555,9.514a5.213,5.213,0,0,0,.473-1.142ZM6.962,4.7A2.374,2.374,0,1,1,4.587,7.072,2.375,2.375,0,0,1,6.962,4.7Z"/>
</svg>
